<svg width="915" height="182" viewBox="0 0 915 182" fill="none" xmlns="http://www.w3.org/2000/svg">
<g filter="url(#filter0_dd_2_2)">
<path d="M158.2 173.2C149.533 173.2 143.333 170.733 139.6 165.8C135.867 160.733 134 153.333 134 143.6C134 133.867 137.133 111.467 143.4 76.4H140.2C132.067 87.0667 125.333 99.8 120 114.6C114.667 129.4 111.4 142.733 110.2 154.6C103.667 160.733 96.1333 163.8 87.6 163.8C84.1333 163.8 81.0667 162.6 78.4 160.2C75.8667 157.667 73.3333 153.333 70.8 147.2C65.8667 134.8 62.3333 111.2 60.2 76.4H57C50.4667 105.067 47.2 125.267 47.2 137C47.2 148.733 49.2 157.8 53.2 164.2C45.2 170.2 36.8667 173.2 28.2 173.2C19.5333 173.2 13.3333 170.733 9.6 165.8C5.86667 160.733 4 153.267 4 143.4C4 133.4 8.2 105.2 16.6 58.8L6 37.4C21.0667 27.6667 34.8 22.8 47.2 22.8C52.6667 22.8 57.2667 23.4 61 24.6C64.8667 25.6667 68.5333 27.8 72 31C75.6 34.2 78.5333 38.6667 80.8 44.4C86 57.3333 89.7333 76.2 92 101H94.4C101.333 80.6 110.933 63.0667 123.2 48.4C129.867 40.5333 137.8 34.3333 147 29.8C156.333 25.2667 166.4 23 177.2 23C187.467 23 192.6 29.2 192.6 41.6C192.6 45.7333 190 61.1333 184.8 87.8C179.733 114.333 177.2 130.133 177.2 135.2C177.2 148.133 179.2 157.8 183.2 164.2C175.2 170.2 166.867 173.2 158.2 173.2ZM274.827 16.4C274.827 21.4667 272.16 25.8667 266.827 29.6C261.493 33.2 255.427 35 248.627 35C241.827 35 236.427 33.6667 232.427 31C228.56 28.3333 226.627 24.7333 226.627 20.2C226.627 14.0667 229.493 9.26666 235.227 5.79999C240.96 2.33333 247.027 0.599998 253.427 0.599998C259.827 0.599998 264.96 1.93333 268.827 4.59999C272.827 7.26666 274.827 11.2 274.827 16.4ZM235.827 173C227.56 173 221.56 170.933 217.827 166.8C214.093 162.667 212.227 156.4 212.227 148C212.227 139.467 216.493 116.733 225.027 79.8L213.827 63C230.493 53 243.627 48 253.227 48C258.693 48 262.56 49.2 264.827 51.6C267.093 53.8667 268.227 57.6 268.227 62.8C268.227 64.8 265.76 76.5333 260.827 98C255.893 119.467 253.427 134.8 253.427 144C253.427 153.2 255.493 159.6 259.627 163.2C252.16 169.733 244.227 173 235.827 173ZM285.766 120.4C285.766 99.0667 293.099 81.6667 307.766 68.2C322.432 54.7333 340.899 48 363.166 48C374.632 48 383.699 50.2 390.366 54.6C397.032 58.8667 400.366 64.2667 400.366 70.8C400.366 77.3333 398.099 82.3333 393.566 85.8C389.166 89.2667 384.299 91 378.966 91C373.766 91 368.966 89.6 364.566 86.8C360.299 84 356.966 79.9333 354.566 74.6C346.166 78.0667 339.499 84.2 334.566 93C329.766 101.8 327.366 110.6 327.366 119.4C327.366 128.2 329.099 135.333 332.566 140.8C336.032 146.267 340.566 149 346.166 149C351.766 149 356.299 147.133 359.766 143.4C363.366 139.667 365.166 134.133 365.166 126.8C384.632 126.8 394.366 131.4 394.366 140.6C394.366 148.467 389.432 155.867 379.566 162.8C369.699 169.6 356.699 173 340.566 173C324.432 173 311.232 168.2 300.966 158.6C290.832 148.867 285.766 136.133 285.766 120.4ZM525.705 48C541.838 48 549.905 56.0667 549.905 72.2C549.905 79.1333 547.905 90.8667 543.905 107.4C540.038 123.933 538.105 136.4 538.105 144.8C538.105 153.2 539.505 159.333 542.305 163.2C535.238 169.733 527.771 173 519.905 173C504.571 173 496.905 164.733 496.905 148.2C496.905 142.067 498.905 131.667 502.905 117C506.905 102.333 508.905 92.8 508.905 88.4C508.905 82.4 506.638 79.4 502.105 79.4C498.371 79.4 494.105 81.0667 489.305 84.4C484.505 87.6 479.838 92 475.305 97.6C470.905 103.067 467.171 110.067 464.105 118.6C461.038 127 459.505 135.6 459.505 144.4C459.505 153.067 460.905 159.333 463.705 163.2C456.638 169.733 449.171 173 441.305 173C425.971 173 418.305 164.733 418.305 148.2C418.305 138.333 420.971 118.333 426.305 88.2C430.838 61.6667 433.438 46.8 434.105 43.6L422.905 27.6C439.571 17.8667 452.705 13 462.305 13C467.771 13 471.638 14.1333 473.905 16.4C476.171 18.5333 477.305 22.1333 477.305 27.2C477.305 36.8 476.371 47.2667 474.505 58.6C472.638 69.9333 470.905 78.2667 469.305 83.6L471.305 84.6C485.571 60.2 503.705 48 525.705 48ZM644.392 143.4L642.392 142.4C638.792 152 633.592 159.533 626.792 165C620.126 170.333 612.659 173 604.392 173C593.059 173 583.992 168.733 577.192 160.2C570.392 151.667 566.992 140.267 566.992 126C566.992 103.867 574.392 85.3333 589.192 70.4C604.126 55.4667 622.659 48 644.792 48C650.526 48 655.792 48.5333 660.592 49.6C661.392 53.3333 661.859 56.6 661.992 59.4C668.659 55.1333 675.526 53 682.592 53C692.326 53 697.192 58.2667 697.192 68.8C697.192 72.5333 695.059 83.8 690.792 102.6C686.659 121.4 684.592 135.333 684.592 144.4C684.592 153.467 686.659 159.733 690.792 163.2C683.326 169.733 675.526 173 667.392 173C659.392 173 653.526 170.6 649.792 165.8C646.192 161 644.392 153.533 644.392 143.4ZM604.592 116.2C604.592 122.733 605.926 127.8 608.592 131.4C611.392 134.867 615.326 136.6 620.392 136.6C625.459 136.6 630.459 134.733 635.392 131C640.326 127.267 644.459 122.133 647.792 115.6C648.992 102.133 651.592 86.2 655.592 67.8C642.126 67.8 630.259 72.6667 619.992 82.4C609.726 92.1333 604.592 103.4 604.592 116.2ZM772.458 173C754.191 173 740.058 168.267 730.058 158.8C720.191 149.333 715.258 136.533 715.258 120.4C715.258 98.9333 722.591 81.5333 737.258 68.2C752.058 54.7333 770.591 48 792.858 48C805.258 48 814.658 50.8 821.058 56.4C827.458 61.8667 830.658 69.1333 830.658 78.2C830.658 90.6 824.591 100.933 812.458 109.2C800.458 117.333 781.858 121.467 756.658 121.6C757.058 130.133 758.991 136.867 762.458 141.8C765.924 146.6 770.258 149 775.458 149C780.658 149 785.124 147.267 788.858 143.8C792.724 140.333 794.658 134.667 794.658 126.8C814.124 126.8 823.858 131.4 823.858 140.6C823.858 148.467 819.058 155.867 809.458 162.8C799.858 169.6 787.524 173 772.458 173ZM789.458 71.4C782.658 71.4 776.391 74.8 770.658 81.6C765.058 88.4 760.991 96.4 758.458 105.6C771.791 104.533 781.791 101.533 788.458 96.6C795.258 91.5333 798.658 86.2 798.658 80.6C798.658 77.9333 797.791 75.7333 796.058 74C794.458 72.2667 792.258 71.4 789.458 71.4ZM867.503 43.6L856.303 27.6C872.97 17.8667 886.103 13 895.703 13C901.17 13 905.036 14.1333 907.303 16.4C909.57 18.5333 910.703 22.6667 910.703 28.8C910.703 34.8 907.703 51.8667 901.703 80C895.836 108.133 892.903 127.867 892.903 139.2C892.903 150.533 894.97 158.533 899.103 163.2C889.77 169.733 881.303 173 873.703 173C866.103 173 860.503 170.533 856.903 165.6C853.436 160.533 851.703 153.6 851.703 144.8C851.703 136 854.17 118 859.103 90.8C864.036 63.6 866.836 47.8667 867.503 43.6Z" fill="url(#paint0_linear_2_2)"/>
</g>
<defs>
<filter id="filter0_dd_2_2" x="0" y="0.600002" width="914.703" height="180.6" filterUnits="userSpaceOnUse" color-interpolation-filters="sRGB">
<feFlood flood-opacity="0" result="BackgroundImageFix"/>
<feColorMatrix in="SourceAlpha" type="matrix" values="0 0 0 0 0 0 0 0 0 0 0 0 0 0 0 0 0 0 127 0" result="hardAlpha"/>
<feOffset dy="4"/>
<feGaussianBlur stdDeviation="2"/>
<feComposite in2="hardAlpha" operator="out"/>
<feColorMatrix type="matrix" values="0 0 0 0 0 0 0 0 0 0 0 0 0 0 0 0 0 0 0.25 0"/>
<feBlend mode="normal" in2="BackgroundImageFix" result="effect1_dropShadow_2_2"/>
<feColorMatrix in="SourceAlpha" type="matrix" values="0 0 0 0 0 0 0 0 0 0 0 0 0 0 0 0 0 0 127 0" result="hardAlpha"/>
<feOffset dy="4"/>
<feGaussianBlur stdDeviation="2"/>
<feComposite in2="hardAlpha" operator="out"/>
<feColorMatrix type="matrix" values="0 0 0 0 0 0 0 0 0 0 0 0 0 0 0 0 0 0 0.25 0"/>
<feBlend mode="normal" in2="effect1_dropShadow_2_2" result="effect2_dropShadow_2_2"/>
<feBlend mode="normal" in="SourceGraphic" in2="effect2_dropShadow_2_2" result="shape"/>
</filter>
<linearGradient id="paint0_linear_2_2" x1="477.5" y1="-36" x2="477.5" y2="210" gradientUnits="userSpaceOnUse">
<stop stop-color="#004AAD"/>
<stop offset="0.5" stop-color="#00347A"/>
<stop offset="1" stop-color="#001E47"/>
</linearGradient>
</defs>
</svg>
